<svg width="24" height="24" viewBox="0 0 24 24" fill="none" xmlns="http://www.w3.org/2000/svg">
<path fill-rule="evenodd" clip-rule="evenodd" d="M1.78245 0H22.2153C22.6885 0.000516843 23.1421 0.166538 23.4766 0.461649C23.8112 0.756761 23.9994 1.15687 24 1.57422V16.7461C23.9982 17.163 23.8096 17.5623 23.4752 17.8569C23.1408 18.1514 22.6879 18.3174 22.2153 18.3184H13.8544V18.2871C13.8544 18.0235 13.8544 17.7656 13.8411 17.334H22.4456C22.5104 17.334 22.5745 17.3227 22.6342 17.3008C22.694 17.2789 22.7483 17.2468 22.794 17.2063C22.8397 17.1659 22.8758 17.1178 22.9004 17.065C22.925 17.0122 22.9375 16.9556 22.9372 16.8985V3.80079H1.13368V16.8985C1.13325 16.9354 1.13846 16.9722 1.14918 17.0078C1.12236 17.1097 1.10826 17.2138 1.10711 17.3184C1.10105 17.599 1.16611 17.8772 1.29754 18.1328C1.32011 18.1801 1.34676 18.2258 1.37725 18.2696V18.2696C0.987684 18.1879 0.640354 17.9935 0.390713 17.7174C0.141071 17.4412 0.00351319 17.0993 0 16.7461L0 1.57422C0.000584374 1.15721 0.188495 0.757394 0.52258 0.462338C0.856664 0.167282 1.30969 0.00103317 1.78245 0V0ZM5.95184 13.4903C6.05337 13.4841 6.15524 13.4964 6.25117 13.5264C6.3471 13.5563 6.43503 13.6034 6.50954 13.6645C6.58405 13.7256 6.64354 13.7996 6.68434 13.8819C6.72514 13.9641 6.74638 14.0528 6.74675 14.1426V18.3262H7.22723V16.2735C7.22723 15.4434 8.71077 15.4688 8.71077 16.3203V18.3711H8.73291H9.25325V16.7344C9.25325 15.9043 10.7368 15.9297 10.7368 16.7793V18.2949H11.2593V17.1406C11.2593 16.3106 12.7429 16.336 12.7429 17.1856C12.7429 18.1426 12.8049 19.2715 12.765 20.2266C12.7229 21.2754 12.4772 22.4571 11.6158 23.1172C11.167 23.4649 10.6362 23.7201 10.0617 23.8643C9.48723 24.0086 8.88357 24.0382 8.29449 23.9512C6.25298 23.666 5.73706 22.5625 4.76502 21.2032L2.29615 17.7539C2.14337 17.4395 2.1633 17.2266 2.31608 17.0899C2.98035 16.7149 4.03875 17.5117 5.22115 18.6387H5.26322V14.0977C5.2638 13.9367 5.33654 13.7825 5.46555 13.6687C5.59457 13.5549 5.76939 13.4908 5.95184 13.4903V13.4903ZM3.82618 7.8711C3.72377 7.71938 3.69127 7.53877 3.73536 7.36653C3.77946 7.19428 3.8968 7.04352 4.0632 6.94534C4.22959 6.84716 4.43235 6.80904 4.62967 6.83883C4.82699 6.86863 5.00382 6.96407 5.12372 7.10548L5.54664 7.51563L6.78882 6.14845C6.92036 6.00755 7.10997 5.91852 7.31593 5.90094C7.5219 5.88335 7.72734 5.93866 7.88707 6.0547C8.04681 6.17073 8.14774 6.33798 8.16767 6.51965C8.1876 6.70133 8.1249 6.88255 7.99336 7.02345L6.11569 9.01368C6.0632 9.07392 6.00046 9.12663 5.9297 9.16993C5.84398 9.22011 5.74787 9.25486 5.64689 9.2722C5.54591 9.28954 5.44204 9.28913 5.34124 9.27098C5.24044 9.25284 5.14469 9.21732 5.05949 9.16646C4.97429 9.1156 4.9013 9.05041 4.84473 8.97462L3.82618 7.86524V7.8711ZM19.514 13.3926C19.7236 13.383 19.921 13.3027 20.0656 13.1685C20.2101 13.0342 20.2907 12.8561 20.2907 12.6709C20.2907 12.4858 20.2101 12.3077 20.0656 12.1734C19.921 12.0391 19.7236 11.9589 19.514 11.9492H10.9626C10.8516 11.9441 10.7406 11.959 10.6363 11.993C10.532 12.027 10.4366 12.0793 10.356 12.1468C10.2754 12.2143 10.2112 12.2956 10.1673 12.3857C10.1234 12.4758 10.1008 12.5729 10.1008 12.6709C10.1008 12.769 10.1234 12.866 10.1673 12.9561C10.2112 13.0462 10.2754 13.1275 10.356 13.195C10.4366 13.2625 10.532 13.3149 10.6363 13.3488C10.7406 13.3828 10.8516 13.3977 10.9626 13.3926H19.514ZM19.514 8.31446C19.7236 8.30484 19.921 8.22461 20.0656 8.09032C20.2101 7.95604 20.2907 7.77794 20.2907 7.59278C20.2907 7.40762 20.2101 7.22953 20.0656 7.09524C19.921 6.96096 19.7236 6.88073 19.514 6.8711H10.9626C10.8516 6.86601 10.7406 6.88089 10.6363 6.91486C10.532 6.94883 10.4366 7.00116 10.356 7.06868C10.2754 7.13619 10.2112 7.21748 10.1673 7.30758C10.1234 7.39768 10.1008 7.49472 10.1008 7.59278C10.1008 7.69085 10.1234 7.78788 10.1673 7.87799C10.2112 7.96809 10.2754 8.04937 10.356 8.11689C10.4366 8.1844 10.532 8.23674 10.6363 8.27071C10.7406 8.30467 10.8516 8.31956 10.9626 8.31446H19.514ZM3.9059 10.6699H7.97122C8.11861 10.6699 8.25998 10.7216 8.3642 10.8135C8.46843 10.9055 8.52699 11.0302 8.52699 11.1602V14.1817C8.5264 14.3115 8.46766 14.4359 8.36356 14.5277C8.25946 14.6196 8.11844 14.6714 7.97122 14.6719H7.85386V14.1426C7.85813 13.7567 7.70039 13.3832 7.41102 13.0938V11.6504H4.46167V13.2324C4.26828 13.4888 4.16506 13.7898 4.16496 14.0977V14.6719H3.9059C3.75868 14.6714 3.61765 14.6196 3.51355 14.5277C3.40945 14.4359 3.35071 14.3115 3.35012 14.1817V11.1602C3.35012 11.0302 3.40868 10.9055 3.51291 10.8135C3.61713 10.7216 3.7585 10.6699 3.9059 10.6699V10.6699ZM20.517 1.36719C20.6922 1.36719 20.8634 1.41301 21.0091 1.49885C21.1547 1.5847 21.2683 1.70671 21.3353 1.84947C21.4023 1.99222 21.4199 2.14931 21.3857 2.30085C21.3515 2.4524 21.2672 2.59161 21.1433 2.70087C21.0194 2.81013 20.8616 2.88454 20.6898 2.91468C20.518 2.94482 20.3399 2.92935 20.1781 2.87022C20.0162 2.81109 19.8779 2.71096 19.7806 2.58248C19.6833 2.454 19.6313 2.30296 19.6313 2.14844C19.6313 1.94124 19.7246 1.74253 19.8907 1.59601C20.0568 1.4495 20.2821 1.36719 20.517 1.36719ZM14.5497 1.36719C14.7249 1.36719 14.8961 1.41301 15.0417 1.49885C15.1874 1.5847 15.3009 1.70671 15.368 1.84947C15.435 1.99222 15.4525 2.14931 15.4184 2.30085C15.3842 2.4524 15.2998 2.59161 15.176 2.70087C15.0521 2.81013 14.8943 2.88454 14.7225 2.91468C14.5507 2.94482 14.3726 2.92935 14.2107 2.87022C14.0489 2.81109 13.9106 2.71096 13.8133 2.58248C13.7159 2.454 13.664 2.30296 13.664 2.14844C13.664 1.94124 13.7573 1.74253 13.9234 1.59601C14.0895 1.4495 14.3148 1.36719 14.5497 1.36719ZM17.5345 1.36719C17.7096 1.36719 17.8809 1.41301 18.0265 1.49885C18.1722 1.5847 18.2857 1.70671 18.3527 1.84947C18.4198 1.99222 18.4373 2.14931 18.4031 2.30085C18.369 2.4524 18.2846 2.59161 18.1607 2.70087C18.0369 2.81013 17.8791 2.88454 17.7072 2.91468C17.5354 2.94482 17.3574 2.92935 17.1955 2.87022C17.0337 2.81109 16.8954 2.71096 16.798 2.58248C16.7007 2.454 16.6488 2.30296 16.6488 2.14844C16.6488 1.94124 16.7421 1.74253 16.9082 1.59601C17.0743 1.4495 17.2996 1.36719 17.5345 1.36719Z" fill="#7E7B7B"/>
</svg>
