<svg xmlns="http://www.w3.org/2000/svg" xmlns:xlink="http://www.w3.org/1999/xlink" width="208" height="50" viewBox="0 0 208 50">
  <defs>
    <clipPath id="clip-Clarent_Logo">
      <rect width="208" height="50"/>
    </clipPath>
  </defs>
  <g id="Clarent_Logo" clip-path="url(#clip-Clarent_Logo)">
    <g id="Group_7671" data-name="Group 7671" transform="translate(-396.837 -524.837)">
      <path id="Path_4055" data-name="Path 4055" d="M691.678,549.723h-3.535v10.694H680.7V527.869h13.02a11.132,11.132,0,0,1,11.158,11.159,10.728,10.728,0,0,1-6,9.44l6.927,11.947h-7.993Zm-3.535-6.509h5.581a4.214,4.214,0,0,0,0-8.371h-5.581Z" transform="translate(-191.284 -2.045)" fill="#033145"/>
      <path id="Path_4056" data-name="Path 4056" d="M396.837,542.8a16.5,16.5,0,0,1,16.925-16.924,16.234,16.234,0,0,1,13.95,7.531l-6.416,3.721a8.413,8.413,0,0,0-7.532-4c-5.765,0-9.486,3.858-9.486,9.67s3.72,9.671,9.486,9.671a8.362,8.362,0,0,0,7.532-4l6.416,3.72a16.119,16.119,0,0,1-13.95,7.531A16.5,16.5,0,0,1,396.837,542.8Z" transform="translate(0 -0.699)" fill="#033145"/>
      <path id="Path_4057" data-name="Path 4057" d="M525.579,553.256v7.161H506.516V527.869h7.439v25.387Z" transform="translate(-73.908 -2.045)" fill="#033145"/>
      <path id="Path_4058" data-name="Path 4058" d="M595.415,555.3H583.326l-1.627,5.114h-8.138l11.067-32.548h9.486l11.067,32.548h-8.138Zm-2.231-6.975-3.813-11.947-3.812,11.947Z" transform="translate(-119.086 -2.045)" fill="#033145"/>
      <path id="Path_4059" data-name="Path 4059" d="M893.307,527.869v32.548h-5.581l-12.553-17.668v17.668h-7.44V527.869h5.575l12.555,17.668V527.869Z" transform="translate(-317.316 -2.045)" fill="#033145"/>
      <path id="Path_4060" data-name="Path 4060" d="M984.623,535.03h-8.369v25.387h-7.438V535.03h-8.371v-7.161h24.176Z" transform="translate(-379.792 -2.045)" fill="#033145"/>
      <g id="Group_7158" data-name="Group 7158" transform="translate(520.739 524.837)">
        <rect id="Rectangle_2112" data-name="Rectangle 2112" width="19.559" height="6.757" transform="translate(1.671 14.604) rotate(-7.992)" fill="#5480c1"/>
        <rect id="Rectangle_2113" data-name="Rectangle 2113" width="19.559" height="6.845" transform="translate(0 2.719) rotate(-7.992)" fill="#f6e94d"/>
        <rect id="Rectangle_2114" data-name="Rectangle 2114" width="19.559" height="6.845" transform="translate(3.378 26.752) rotate(-7.992)" fill="#033145"/>
      </g>
      <g id="Group_7159" data-name="Group 7159" transform="translate(525.07 564.888)">
        <path id="Path_4061" data-name="Path 4061" d="M790.176,648.021h-.162v9.511h1.509v-9.511h-1.346Z" transform="translate(-790.014 -647.898)" fill="#033145"/>
        <path id="Path_4062" data-name="Path 4062" d="M811.106,648.021h-.162v6.887l-4.468-6.813-.047-.075H804.99v9.511h1.51v-6.876l4.473,6.8.049.075h1.438v-9.511h-1.35Z" transform="translate(-800.105 -647.898)" fill="#033145"/>
        <path id="Path_4063" data-name="Path 4063" d="M842.32,652.408a11.589,11.589,0,0,0-1.449-.557,11.138,11.138,0,0,1-1.127-.415,1.784,1.784,0,0,1-.639-.479,1.13,1.13,0,0,1-.243-.761,1.143,1.143,0,0,1,.374-.926,1.552,1.552,0,0,1,1.039-.331,1.612,1.612,0,0,1,1.127.374,1.544,1.544,0,0,1,.511.875l.026.13h1.593l-.024-.183a2.682,2.682,0,0,0-.984-1.778,3.437,3.437,0,0,0-2.253-.7,3.731,3.731,0,0,0-1.586.314,2.445,2.445,0,0,0-1.06.907,2.5,2.5,0,0,0-.37,1.352,2.39,2.39,0,0,0,.4,1.438,2.559,2.559,0,0,0,.959.813,12.167,12.167,0,0,0,1.421.548,9.729,9.729,0,0,1,1.154.428,1.941,1.941,0,0,1,.666.511,1.227,1.227,0,0,1,.256.809,1.279,1.279,0,0,1-.368.952,1.481,1.481,0,0,1-1.084.368,1.884,1.884,0,0,1-.942-.219,1.621,1.621,0,0,1-.6-.556,1.649,1.649,0,0,1-.245-.7l-.013-.145h-1.593l.015.176a2.764,2.764,0,0,0,.52,1.406,3.079,3.079,0,0,0,1.195.963,3.968,3.968,0,0,0,1.692.348,3.418,3.418,0,0,0,1.655-.372,2.547,2.547,0,0,0,1.015-.976,2.624,2.624,0,0,0,.333-1.294,2.531,2.531,0,0,0-.407-1.493A2.606,2.606,0,0,0,842.32,652.408Z" transform="translate(-821.85 -647.657)" fill="#033145"/>
        <path id="Path_4064" data-name="Path 4064" d="M864.3,648.021h-.162v1.294h2.588v8.22h1.51v-8.22h2.588v-1.294Z" transform="translate(-839.965 -647.898)" fill="#033145"/>
        <path id="Path_4065" data-name="Path 4065" d="M892.938,648.021h-.162v9.511h1.512v-9.511h-1.35Z" transform="translate(-859.259 -647.898)" fill="#033145"/>
        <path id="Path_4066" data-name="Path 4066" d="M905.639,648.021h-.163v1.294h2.588v8.22h1.517v-8.22h2.588v-1.294Z" transform="translate(-867.819 -647.898)" fill="#033145"/>
        <path id="Path_4067" data-name="Path 4067" d="M939.728,648.021h-.162V653.7a2.77,2.77,0,0,1-.544,1.885,1.91,1.91,0,0,1-1.507.6,1.973,1.973,0,0,1-1.537-.6,2.715,2.715,0,0,1-.556-1.892v-5.675h-1.51v5.675a4.034,4.034,0,0,0,.978,2.935,3.913,3.913,0,0,0,5.209,0,4.034,4.034,0,0,0,.978-2.935v-5.675h-1.348Z" transform="translate(-886.98 -647.898)" fill="#033145"/>
        <path id="Path_4068" data-name="Path 4068" d="M963.91,648.021h-.162v1.294h2.588v8.22h1.51v-8.22h2.588v-1.294H963.9Z" transform="translate(-907.085 -647.898)" fill="#033145"/>
        <path id="Path_4069" data-name="Path 4069" d="M997.613,648.021h-5.23v9.511h5.393v-1.294h-3.883v-2.879h3.49v-1.237h-3.49v-2.813h3.883v-1.294Z" transform="translate(-926.38 -647.898)" fill="#033145"/>
      </g>
    </g>
  </g>
</svg>
