<svg xmlns="http://www.w3.org/2000/svg" width="25" height="82" viewBox="0 0 25 82">
    <path fill="#4A88E9" fill-rule="evenodd" d="M11.995 24.228c.309.107.621.18.9.318 1.006.498 1.985 1.052 3.003 1.52 1.604.736 3.232 1.422 4.851 2.124.217.094.445.188.675.213.079.01.278-.214.26-.292-.379-1.566-1.163-2.964-1.875-4.391-.57-1.144-1.185-2.266-1.723-3.424-2.253-4.855-4.483-9.72-6.727-14.578a2.325 2.325 0 0 0-.379-.597c-.064-.07-.341-.078-.365-.033a7.55 7.55 0 0 0-.486 1.09c-1.301 3.855-2.61 7.709-3.883 11.573-.825 2.5-1.598 5.018-2.393 7.529-.193.608-.393 1.215-.566 1.83-.087.31-.12.673.188.86.169.102.48.084.679.004.67-.268 1.326-.572 1.974-.89 1.657-.813 3.306-1.644 4.96-2.462.284-.14.581-.253.907-.394m.929 3.897c.086.722.185 1.515.275 2.31.402 3.575.805 7.15 1.202 10.727.202 1.827.367 3.66.59 5.485.602 4.921 1.135 9.847 1.469 14.797.259 3.826.583 7.653 1.154 11.454.296 1.975.442 3.972.63 5.961.06.635.062 1.278.038 1.915-.01.308-.101.632-.51.707-.345.063-.659-.03-.883-.259a2.19 2.19 0 0 1-.504-.79c-.1-.294-.106-.63-.105-.949.012-2.411-.513-4.768-.727-7.156a163.521 163.521 0 0 0-.367-3.576c-.212-1.907-.436-3.811-.652-5.717-.063-.557-.156-1.113-.17-1.67-.063-2.807-.588-5.565-.867-8.347-.223-2.228-.372-4.463-.568-6.694-.217-2.469-.405-4.941-.688-7.403-.418-3.653-.907-7.3-1.37-10.948-.064-.513-.368-.711-.806-.533-.371.152-.745.303-1.104.484-.933.47-1.854.966-2.79 1.43-.72.357-1.454.686-2.186 1.018-.602.274-1.244.316-1.894.279-.918-.054-1.686-.89-1.581-1.778.055-.473.185-.943.326-1.4 1.112-3.59 2.114-7.22 3.384-10.755 1.544-4.296 2.759-8.69 4.204-13.012.328-.982.747-1.935 1.157-2.888.14-.327.742-.415 1.066-.198.198.132.42.256.563.437.195.248.349.536.48.824 2.846 6.18 5.69 12.362 8.525 18.547 1.2 2.62 2.392 5.244 3.56 7.878.29.654.493 1.35.708 2.034.11.35-.349.838-.698.773-.237-.044-.486-.069-.7-.166-.806-.365-1.591-.774-2.4-1.135a858.043 858.043 0 0 0-6.841-3.02c-.657-.287-.923-.114-.92.539v.795"/>
</svg>
