<svg id="Layer_1" data-name="Layer 1" xmlns="http://www.w3.org/2000/svg" viewBox="0 0 497.35 298.66"><defs><style>.cls-1{fill:#e8eaef;}.cls-2{fill:#ffd44c;}.cls-3,.cls-4{fill:#003145;}.cls-4{opacity:0.5;}.cls-5{fill:#fff;}.cls-6{opacity:0.3;}.cls-7{fill:#c0c5d0;}.cls-8,.cls-9{fill:none;}.cls-8{stroke:#e8eaef;stroke-miterlimit:10;stroke-width:5px;}.cls-9{stroke:#003145;stroke-linecap:round;stroke-linejoin:round;stroke-width:10px;}</style></defs><title>error-graphics</title><path class="cls-1" d="M364.08,261c0,9-51.34,16.26-114.67,16.26S134.74,270,134.74,261s51.34-16.27,114.67-16.27S364.08,252.05,364.08,261Z"/><rect class="cls-2" x="55.74" width="386.52" height="223.92" rx="8.46"/><path class="cls-3" d="M433.79,0H64.2a8.49,8.49,0,0,0-8.46,8.46V30H442.26V8.46A8.49,8.49,0,0,0,433.79,0Z"/><rect class="cls-4" x="55.74" y="29.46" width="386.53" height="6.68"/><rect class="cls-5" x="127.52" y="7.62" width="251.78" height="14.75" rx="3"/><rect class="cls-5" x="390.52" y="7.62" width="33.68" height="14.75" rx="3"/><path class="cls-5" d="M82.63,15A5.09,5.09,0,1,1,77.54,9.9,5.09,5.09,0,0,1,82.63,15Z"/><path class="cls-5" d="M97.68,15A5.09,5.09,0,1,1,92.59,9.9,5.09,5.09,0,0,1,97.68,15Z"/><path class="cls-5" d="M112.72,15a5.09,5.09,0,1,1-5.08-5.09A5.08,5.08,0,0,1,112.72,15Z"/><g class="cls-6"><rect class="cls-3" x="66.95" y="209.59" width="364.1" height="6.23" rx="3"/></g><path class="cls-3" d="M33.48,149.69H29.59a26.59,26.59,0,0,1,26.56-26.56V127A22.7,22.7,0,0,0,33.48,149.69Z"/><path class="cls-3" d="M38,154.16a6.48,6.48,0,1,1-6.48-6.47A6.48,6.48,0,0,1,38,154.16Z"/><path class="cls-3" d="M31.57,165.61a1.3,1.3,0,0,1-1.29-1.3v-7.66a1.3,1.3,0,1,1,2.59,0v7.66A1.3,1.3,0,0,1,31.57,165.61Z"/><path class="cls-3" d="M35.87,165.61a1.3,1.3,0,0,1-1.3-1.3v-7.66a1.3,1.3,0,1,1,2.59,0v7.66A1.3,1.3,0,0,1,35.87,165.61Z"/><path class="cls-3" d="M27.28,165.61a1.3,1.3,0,0,1-1.29-1.3v-7.66a1.3,1.3,0,1,1,2.59,0v7.66A1.3,1.3,0,0,1,27.28,165.61Z"/><path class="cls-3" d="M40.72,159.24a1.29,1.29,0,0,1-.92-.38l-5.41-5.42a1.29,1.29,0,0,1,0-1.83,1.3,1.3,0,0,1,1.83,0L41.64,157a1.3,1.3,0,0,1,0,1.83A1.29,1.29,0,0,1,40.72,159.24Z"/><path class="cls-3" d="M469.23,149.69h-3.89A22.7,22.7,0,0,0,442.67,127v-3.88A26.59,26.59,0,0,1,469.23,149.69Z"/><path class="cls-3" d="M460.81,154.16a6.48,6.48,0,1,0,6.48-6.47A6.48,6.48,0,0,0,460.81,154.16Z"/><path class="cls-3" d="M467.25,165.61a1.3,1.3,0,0,1-1.3-1.3v-7.66a1.3,1.3,0,1,1,2.59,0v7.66A1.3,1.3,0,0,1,467.25,165.61Z"/><path class="cls-3" d="M463,165.61a1.3,1.3,0,0,1-1.29-1.3v-7.66a1.3,1.3,0,1,1,2.59,0v7.66A1.3,1.3,0,0,1,463,165.61Z"/><path class="cls-3" d="M471.54,165.61a1.3,1.3,0,0,1-1.3-1.3v-7.66a1.3,1.3,0,1,1,2.59,0v7.66A1.3,1.3,0,0,1,471.54,165.61Z"/><path class="cls-3" d="M458.1,159.24a1.29,1.29,0,0,1-.92-.38,1.3,1.3,0,0,1,0-1.83l5.42-5.42a1.3,1.3,0,0,1,1.83,0,1.29,1.29,0,0,1,0,1.83L459,158.86A1.25,1.25,0,0,1,458.1,159.24Z"/><rect class="cls-7" x="181.91" y="223.92" width="3.89" height="36.54"/><path class="cls-7" d="M185.8,260.46a9.88,9.88,0,0,0-19.76,0Z"/><rect class="cls-7" x="313.02" y="223.92" width="3.89" height="36.54"/><path class="cls-7" d="M313,260.46a9.88,9.88,0,0,1,19.76,0Z"/><line class="cls-8" x1="126.13" y1="270.25" x2="29.85" y2="270.25"/><line class="cls-8" x1="16.17" y1="270.25" y2="270.25"/><line class="cls-8" x1="371.22" y1="270.25" x2="467.5" y2="270.25"/><line class="cls-8" x1="178.05" y1="296.16" x2="244.2" y2="296.16"/><line class="cls-8" x1="481.19" y1="270.25" x2="497.35" y2="270.25"/><line class="cls-8" x1="256.5" y1="296.16" x2="272.67" y2="296.16"/><line class="cls-8" x1="415.79" y1="296.16" x2="349.64" y2="296.16"/><line class="cls-8" x1="113.32" y1="296.16" x2="97.15" y2="296.16"/><path class="cls-5" d="M231.52,98.59a28.91,28.91,0,1,1-28.9-28.9A28.91,28.91,0,0,1,231.52,98.59Z"/><path class="cls-3" d="M224.05,98.59a21.43,21.43,0,1,1-21.43-21.43A21.43,21.43,0,0,1,224.05,98.59Z"/><path class="cls-5" d="M324.29,98.59a28.91,28.91,0,1,1-28.91-28.9A28.91,28.91,0,0,1,324.29,98.59Z"/><path class="cls-3" d="M316.81,98.59a21.43,21.43,0,1,1-21.43-21.43A21.42,21.42,0,0,1,316.81,98.59Z"/><path class="cls-9" d="M209.07,176.64a40.95,40.95,0,0,1,79.86-.22"/></svg> 