<svg width="24" height="24" viewBox="0 0 24 24" fill="none" xmlns="http://www.w3.org/2000/svg">
<g clip-path="url(#clip0_6_19)">
<path d="M11.6353 14.3785L3.57791 10.0759L1.49807 12.5865C4.40994 14.1537 7.11135 15.634 10.0246 17.2016L11.6353 14.3785V14.3785ZM17.9338 2.75497L17.9629 8.67766C17.9643 8.9869 17.7731 9.25271 17.5007 9.36437L17.5012 9.36581L12.4462 11.6517C12.2531 11.7299 11.8987 11.7419 11.7103 11.6612L7.05088 9.4622L7.05135 9.46077C6.78229 9.34576 6.59291 9.07232 6.59432 8.75354L6.62198 2.90625C6.60088 2.545 6.74666 2.19377 7.09588 2.05061L11.9582 0.0568083C12.1565 -0.024318 12.3693 -0.0152509 12.5503 0.0639665L17.4046 1.85113C17.6953 1.95803 17.879 2.22383 17.8921 2.51159C17.9198 2.58986 17.9338 2.67241 17.9338 2.75497ZM11.5856 10.5168V4.95874L7.31338 3.24555L7.23135 8.61992L11.5856 10.5168V10.5168ZM12.5967 4.9597V10.5121L17.2232 8.55932L17.197 3.14963L12.5967 4.9597V4.9597ZM5.31932 8.83276L4.12494 9.43548L12.1565 13.7323L20.2035 9.42737L19.2379 8.91627L19.2337 7.97902L20.4459 8.6161L22.7146 6.42665L19.2163 4.50014L19.2117 3.50849L23.8359 5.99716C23.8631 6.01195 23.8884 6.03104 23.9113 6.0549C24.0309 6.1785 24.029 6.37702 23.9081 6.49871L21.142 9.26368L23.8204 12.5273C23.9292 12.66 23.9118 12.8585 23.782 12.9697C23.7618 12.9864 23.7407 13.0007 23.7187 13.0112L21.3145 14.3054V19.1568C21.3145 19.2871 21.2353 19.3997 21.1237 19.4469L12.4303 23.9394C12.2249 24.0382 12.1467 24.0163 11.9259 23.8697L3.21651 19.4369C3.16537 19.4109 3.12236 19.371 3.0923 19.3215C3.06224 19.272 3.04633 19.215 3.04635 19.1568L3.04448 14.3293L0.595258 13.0112C0.573227 13.0007 0.552602 12.9864 0.532446 12.9697C0.402133 12.8585 0.38479 12.66 0.494008 12.5273L3.10307 9.3491L0.0758835 6.42856C-0.0361477 6.29876 -0.022554 6.10071 0.105415 5.98618C0.124165 5.96996 0.143852 5.95564 0.164008 5.94467L5.34698 2.9597L5.34229 3.96853L1.18776 6.37463L3.65526 8.71012L5.32401 7.86879L5.31932 8.83276ZM20.782 10.1079L12.7392 14.4018L14.3057 17.2317L22.7676 12.5584L20.782 10.1079Z" fill="#7E7B7B"/>
</g>
<defs>
<clipPath id="clip0_6_19">
<rect width="24" height="24" fill="white"/>
</clipPath>
</defs>
</svg>
