<svg width="24" height="24" viewBox="0 0 24 24" fill="none" xmlns="http://www.w3.org/2000/svg">
<g clip-path="url(#clip0_3_6)">
<path d="M11.7302 15.4707L3.60641 11.7012L1.43283 14.0234C4.34494 15.3906 7.11111 16.7051 10.0254 18.0644L11.7302 15.4707V15.4707ZM13.2294 11.2617C13.1036 11.4556 12.9221 11.6166 12.7031 11.7285C12.5184 11.8242 12.311 11.8804 12.0973 11.8926C11.8824 11.9047 11.6677 11.8677 11.4737 11.7851C11.3352 11.7247 11.2101 11.6426 11.1045 11.543L13.2294 11.2617V11.2617ZM9.69154 7.98241C9.32906 7.64526 9.02573 7.26212 8.79159 6.84569C8.53661 6.38113 8.40359 5.87174 8.40243 5.35546C8.41407 4.79824 8.57711 4.25165 8.87783 3.76171V3.75194C9.2559 3.16977 9.84355 2.71601 10.5473 2.46288C11.0982 2.26748 11.6943 2.19179 12.2852 2.24218C12.8704 2.28988 13.4365 2.45057 13.9436 2.71288C14.5929 3.04389 15.1016 3.55359 15.3919 4.16405C15.56 4.5219 15.6529 4.90377 15.6661 5.29101C15.6778 5.74423 15.5822 6.19461 15.3853 6.61327C15.0558 7.33202 14.2797 8.10351 13.7844 8.81054C13.7567 8.80579 13.7281 8.80579 13.7004 8.81054L13.0216 8.89843C14.5694 4.11132 14.0497 4.51171 12.6036 8.95507L11.5777 9.08983L10.6622 6.51562L10.3925 5.7539L10.3239 5.56835C10.3096 5.52458 10.2761 5.48764 10.2309 5.46567C10.1857 5.44369 10.1325 5.43847 10.0829 5.45116C10.0334 5.46385 9.99154 5.49341 9.96666 5.53334C9.94178 5.57326 9.93588 5.62028 9.95025 5.66405L11.1841 9.13475L10.4411 9.23241C10.2763 8.77615 10.0169 8.35095 9.67606 7.9785L9.69154 7.98241ZM11.927 0.365226C11.9279 0.315366 11.9401 0.26617 11.9629 0.220546C11.9857 0.174922 12.0186 0.133797 12.0597 0.0996015C12.1411 0.0351944 12.2467 -0.000290827 12.356 -7.85735e-06H12.3825C12.4883 0.00823922 12.5872 0.0498359 12.6611 0.11718C12.7003 0.153567 12.7308 0.196498 12.751 0.243453C12.7711 0.290409 12.7804 0.340443 12.7783 0.390617V0.390617C12.7794 0.397092 12.7794 0.403673 12.7783 0.410148L12.7562 1.21874V1.24609C12.7442 1.34207 12.6923 1.43072 12.6107 1.49492C12.529 1.55912 12.4233 1.59433 12.314 1.59374H12.283C12.1744 1.58312 12.074 1.53732 12.0013 1.46518C11.9286 1.39305 11.8888 1.29968 11.8894 1.20312V1.18359L11.9115 0.369133L11.927 0.365226ZM7.26147 1.79101C7.17862 1.72144 7.12949 1.62625 7.12437 1.52538C7.12186 1.42521 7.16303 1.32802 7.23936 1.2539C7.31757 1.18118 7.42445 1.13782 7.53786 1.1328C7.59451 1.13072 7.65106 1.13863 7.70422 1.15607C7.75737 1.1735 7.80605 1.20012 7.84743 1.23437L8.5351 1.80077C8.57789 1.83461 8.61252 1.87572 8.6369 1.92166C8.66127 1.96759 8.6749 2.0174 8.67697 2.0681C8.67903 2.1188 8.66949 2.16934 8.64891 2.21671C8.62833 2.26407 8.59714 2.30728 8.55721 2.34374C8.479 2.41646 8.37212 2.45982 8.2587 2.46484C8.20322 2.46502 8.14825 2.45544 8.097 2.43667C8.04574 2.41789 7.99924 2.39028 7.9602 2.35546L7.26147 1.79101ZM6.13598 5.96874C6.08018 5.96886 6.0249 5.95926 5.9733 5.9405C5.9217 5.92173 5.87479 5.89416 5.83526 5.85937C5.77287 5.80811 5.72916 5.74161 5.70973 5.66833C5.69029 5.59505 5.69599 5.51832 5.72612 5.44792C5.75625 5.37752 5.80942 5.31664 5.87888 5.27304C5.94833 5.22944 6.03091 5.2051 6.11608 5.20312L7.05583 5.17577C7.11232 5.17376 7.16869 5.1819 7.22152 5.1997C7.27435 5.21749 7.32254 5.24457 7.36318 5.27929C7.44586 5.34796 7.49436 5.44277 7.49806 5.54296V5.55663C7.49501 5.65099 7.45338 5.74119 7.38087 5.81054C7.34257 5.84677 7.2964 5.87583 7.24512 5.89596C7.19383 5.91609 7.13848 5.9269 7.08236 5.92772H7.07573L6.14704 5.95507L6.13598 5.96874ZM17.8308 4.79687H17.8441C17.953 4.79291 18.0595 4.82592 18.1417 4.88911C18.224 4.9523 18.2757 5.04089 18.2863 5.13671V5.13671C18.2863 5.13671 18.2863 5.14843 18.2863 5.15038C18.2928 5.24656 18.2575 5.3413 18.1877 5.41531C18.1178 5.48933 18.0187 5.53707 17.9104 5.54882L16.9751 5.63476C16.9192 5.64023 16.8627 5.6358 16.8088 5.62171C16.7548 5.60763 16.7047 5.58417 16.6611 5.55273C16.5734 5.48848 16.5172 5.39683 16.5041 5.29687C16.4944 5.19707 16.5284 5.09778 16.5992 5.01952C16.6352 4.98035 16.6799 4.94804 16.7304 4.92454C16.7809 4.90104 16.8364 4.88684 16.8933 4.8828C17.2051 4.85351 17.5191 4.8203 17.8308 4.79491V4.79687ZM15.9779 1.48827C16.0437 1.40468 16.1438 1.34708 16.257 1.32775C16.3702 1.30841 16.4874 1.32887 16.5837 1.38476V1.38476C16.631 1.41164 16.6716 1.44685 16.7027 1.48818C16.7339 1.52952 16.7552 1.57609 16.7651 1.62499C16.7763 1.67391 16.7764 1.7243 16.7654 1.77325C16.7544 1.8222 16.7325 1.86873 16.7009 1.91015L16.1791 2.5996C16.1479 2.64134 16.1076 2.67719 16.0606 2.70504C16.0135 2.73289 15.9607 2.7522 15.9051 2.76183C15.8496 2.77147 15.7924 2.77124 15.7369 2.76116C15.6815 2.75108 15.6288 2.73135 15.5821 2.70312C15.5351 2.67575 15.4946 2.64043 15.4631 2.5992C15.4316 2.55797 15.4097 2.51164 15.3986 2.46288C15.3782 2.36383 15.402 2.26168 15.4649 2.17773L15.9867 1.48632L15.9779 1.48827ZM13.5257 9.27733L13.4572 9.5703L13.4395 9.76561L10.6622 10.1308C10.6513 9.97296 10.6254 9.81616 10.5848 9.6621L13.5257 9.27147V9.27733ZM13.4328 10.2109V10.334V10.3769C13.4395 10.4576 13.4395 10.5385 13.4328 10.6191L13.3908 10.7949L10.8214 11.1328L10.7772 11.041L10.6755 10.6777V10.5723L13.435 10.209L13.4328 10.2109ZM8.65892 9.33983L4.12603 11.3281L12.1614 15.0547L20.2034 11.3281L15.5887 9.17968H15.5622L15.7612 8.93358L15.927 8.73827L20.4975 10.8047L23.0271 8.67968L19.016 6.75976C19.213 6.65155 19.3873 6.51411 19.5312 6.35351L19.5445 6.33983L23.8364 8.34374C23.8638 8.35693 23.8891 8.37336 23.9116 8.39257C23.9412 8.41789 23.9649 8.44823 23.981 8.48179C23.9971 8.51534 24.0054 8.55143 24.0054 8.58788C24.0054 8.62434 23.9971 8.66042 23.981 8.69397C23.9649 8.72753 23.9412 8.75787 23.9116 8.78319L21.141 11.1777L23.8209 14.0098C23.8482 14.0374 23.8688 14.0696 23.8816 14.1044C23.8944 14.1393 23.8991 14.1761 23.8954 14.2126C23.8917 14.2491 23.8796 14.2845 23.86 14.3168C23.8404 14.3491 23.8135 14.3775 23.7811 14.4004C23.7619 14.4145 23.7411 14.4269 23.7192 14.4375L21.3134 15.5508V19.7598C21.3137 19.8137 21.2957 19.8664 21.2618 19.9113C21.2279 19.9562 21.1797 19.9911 21.1233 20.0117L12.4312 23.918C12.3974 23.9509 12.3551 23.9762 12.3078 23.9915C12.2606 24.0067 12.2098 24.0116 12.1599 24.0056C12.11 23.9997 12.0626 23.9831 12.0216 23.9572C11.9806 23.9314 11.9474 23.8971 11.9248 23.8574L3.21724 20.0039C3.16606 19.9811 3.12304 19.9462 3.09298 19.9031C3.06292 19.86 3.04699 19.8104 3.04698 19.7598V15.5723L0.594799 14.4297C0.572838 14.4191 0.552101 14.4067 0.532886 14.3926C0.500467 14.3697 0.473624 14.3413 0.453976 14.309C0.434329 14.2767 0.422282 14.2413 0.418564 14.2048C0.414845 14.1683 0.41953 14.1315 0.432338 14.0966C0.445145 14.0618 0.465809 14.0296 0.493085 14.0019L3.09563 11.2519L0.0751748 8.71679C0.0473916 8.68967 0.0260966 8.65788 0.012568 8.62332C-0.000960528 8.58875 -0.00644381 8.55213 -0.0035527 8.51565C-0.000661591 8.47917 0.0105443 8.44358 0.0293924 8.41102C0.0482405 8.37845 0.0743423 8.34959 0.106131 8.32616C0.123229 8.31147 0.142582 8.29898 0.163621 8.28905L4.14372 6.29687L4.17247 6.35741C4.26455 6.53162 4.38526 6.69286 4.53068 6.83593L0.928685 8.64843L3.68601 10.8965L8.30293 8.87108L8.40243 8.97265C8.47968 9.05832 8.54708 9.15057 8.60364 9.24804L8.65892 9.33983ZM20.785 11.6601L12.586 15.4707L14.3062 18.0898L22.9298 13.9512L20.785 11.6601Z" fill="#7E7B7B"/>
</g>
<defs>
<clipPath id="clip0_3_6">
<rect width="24" height="24" fill="white"/>
</clipPath>
</defs>
</svg>
