<svg width="24" height="24" viewBox="0 0 24 24" fill="none" xmlns="http://www.w3.org/2000/svg">
<g clip-path="url(#clip0_3_10)">
<path fill-rule="evenodd" clip-rule="evenodd" d="M1.625 0H22.375C23.2695 0 24 0.91303 24 2.03113V21.9713C24 23.0894 23.2695 24.0024 22.375 24.0024H1.625C0.730469 24 0 23.087 0 21.9689V2.03113C0 0.91303 0.730469 0 1.625 0ZM15.6934 16.5542H16.3359V14.5035C16.3359 14.4645 16.3223 14.4278 16.3008 14.401C16.2793 14.3741 16.25 14.357 16.2188 14.357H12.3945V16.5542H13.0352C13.2383 16.5542 13.4043 16.7617 13.4043 17.0156V18.8587C13.4043 19.1126 13.2383 19.3201 13.0352 19.3201H10.9512C10.748 19.3201 10.582 19.1126 10.582 18.8587V17.0156C10.582 16.7617 10.748 16.5542 10.9512 16.5542H11.5918V14.357H7.77148C7.74023 14.357 7.71094 14.3741 7.68945 14.401C7.66797 14.4278 7.6543 14.4645 7.6543 14.5035V16.5542H8.30664C8.50977 16.5542 8.67578 16.7617 8.67578 17.0156V18.8587C8.67578 19.1126 8.50977 19.3201 8.30664 19.3201H6.22266C6.01953 19.3201 5.85352 19.1126 5.85352 18.8587V17.0156C5.85352 16.7617 6.01953 16.5542 6.22266 16.5542H6.85547V14.5035C6.85547 14.1886 6.95898 13.903 7.125 13.6955C7.29102 13.4879 7.51953 13.361 7.77148 13.361H11.5957V10.412H10.9551C10.752 10.412 10.5859 10.2045 10.5859 9.95057V8.10742C10.5859 7.85353 10.752 7.64602 10.9551 7.64602H13.0391C13.2422 7.64602 13.4082 7.85353 13.4082 8.10742V9.95057C13.4082 10.2045 13.2422 10.412 13.0391 10.412H12.3984V13.3586H16.2227C16.4746 13.3586 16.7031 13.488 16.8691 13.693C17.0352 13.9005 17.1387 14.1862 17.1387 14.5011V16.5517H17.7813C17.9844 16.5517 18.1504 16.7592 18.1504 17.0131V18.8563C18.1504 19.1102 17.9844 19.3177 17.7813 19.3177H15.6973C15.4941 19.3177 15.3281 19.1102 15.3281 18.8563V17.0156C15.3262 16.7617 15.4922 16.5542 15.6934 16.5542ZM23.041 5.68569H1.0332V22.1666C1.0332 22.3229 1.08203 22.4596 1.16406 22.5645C1.24609 22.6671 1.35742 22.7281 1.48242 22.7281H22.584C22.709 22.7281 22.8184 22.6671 22.9023 22.5645C22.9863 22.4596 23.0332 22.3229 23.0332 22.1666V5.68569H23.041ZM20.8281 2.28258C21.2715 2.28258 21.6309 2.73177 21.6309 3.28593C21.6309 3.8401 21.2715 4.28929 20.8281 4.28929C20.3848 4.28929 20.0254 3.8401 20.0254 3.28593C20.0273 2.73177 20.3867 2.28258 20.8281 2.28258ZM15.3906 2.28258C15.834 2.28258 16.1934 2.73177 16.1934 3.28593C16.1934 3.8401 15.834 4.28929 15.3906 4.28929C14.9473 4.28929 14.5879 3.8401 14.5879 3.28593C14.5879 2.73177 14.9473 2.28258 15.3906 2.28258ZM18.1094 2.28258C18.5527 2.28258 18.9121 2.73177 18.9121 3.28593C18.9121 3.8401 18.5527 4.28929 18.1094 4.28929C17.666 4.28929 17.3066 3.8401 17.3066 3.28593C17.3066 2.73177 17.666 2.28258 18.1094 2.28258Z" fill="#7E7B7B"/>
</g>
<defs>
<clipPath id="clip0_3_10">
<rect width="24" height="24" fill="white"/>
</clipPath>
</defs>
</svg>
